<?xml version="1.0" encoding="UTF-8"?>
<svg id="_레이어_1" data-name="레이어 1" xmlns="http://www.w3.org/2000/svg" viewBox="0 0 164.81 18.94">
  <defs>
    <style>
      .cls-1 {
        fill: #fff;
      }
    </style>
  </defs>
  <path class="cls-1" d="M3.17,.25L7.95,8.58h.2L12.95,.25h3.17l-6.68,11.17v7.21h-2.79v-7.21L0,.25H3.17Z"/>
  <path class="cls-1" d="M25.36,18.89c-4.79,0-8.3-3.58-8.3-9.45S20.57,0,25.36,0s8.28,3.57,8.28,9.45-3.53,9.45-8.28,9.45Zm0-2.56c3.15,.01,5.5-2.41,5.51-6.88-.01-4.47-2.36-6.89-5.51-6.88-3.17-.01-5.52,2.41-5.54,6.88,.01,4.47,2.36,6.89,5.54,6.88Z"/>
  <path class="cls-1" d="M44.66,18.89c-4.79,0-8.3-3.58-8.3-9.45S39.87,0,44.66,0s8.28,3.57,8.28,9.45-3.53,9.45-8.28,9.45Zm0-2.56c3.15,.01,5.5-2.41,5.51-6.88-.01-4.47-2.36-6.89-5.51-6.88-3.17-.01-5.52,2.41-5.54,6.88,.01,4.47,2.36,6.89,5.54,6.88Z"/>
  <path class="cls-1" d="M71.09,18.64h-2.56l-9.32-13.43h-.15v13.43h-2.79V.25h2.59l9.32,13.46h.18V.25h2.74V18.64Z"/>
  <path class="cls-1" d="M75.03,18.64V.25h6.14c5.42,0,8.65,3.44,8.66,9.17-.01,5.74-3.24,9.22-8.84,9.22h-5.97Zm5.81-2.44c4.16-.01,6.22-2.44,6.22-6.78s-2.06-6.73-6.07-6.73h-3.17v13.51h3.02Z"/>
  <path class="cls-1" d="M93.17,.25h11.53V2.67h-8.73v5.56h8.12v2.39h-8.12v5.61h8.84v2.41h-11.63V.25Z"/>
  <path class="cls-1" d="M114.53,2.41c-2.25,0-3.67,1.16-3.68,2.72,0,1.74,1.89,2.42,3.35,2.77l1.78,.48c2.35,.57,5.29,1.85,5.31,5.18-.01,3.11-2.49,5.38-6.83,5.38-4.11,0-6.7-2.06-6.88-5.41h2.79c.17,2.01,1.94,2.96,4.09,2.97,2.35-.01,4.05-1.19,4.06-3-.01-1.6-1.54-2.25-3.48-2.77l-2.18-.58c-2.96-.81-4.79-2.31-4.8-4.88,.01-3.17,2.83-5.28,6.55-5.28s6.33,2.13,6.42,5.1h-2.72c-.18-1.71-1.68-2.69-3.78-2.69Z"/>
  <path class="cls-1" d="M127.25,18.64h-2.79V.25h2.79V18.64Z"/>
  <path class="cls-1" d="M138.81,2.56c-3.1-.01-5.47,2.42-5.48,6.88,.01,4.44,2.36,6.89,5.61,6.88,2.93,.01,4.88-1.85,4.93-4.8h-4.52v-2.31h7.24v2.08c0,4.66-3.2,7.59-7.67,7.59-4.98,0-8.35-3.62-8.35-9.45s3.48-9.45,8.23-9.45c3.97,0,7.05,2.48,7.67,6.07h-2.87c-.69-2.17-2.35-3.52-4.77-3.5Z"/>
  <path class="cls-1" d="M164.81,18.64h-2.56l-9.32-13.43h-.15v13.43h-2.79V.25h2.59l9.32,13.46h.18V.25h2.74V18.64Z"/>
</svg>