<svg id="_레이어_1" data-name=" 레이어 1" xmlns="http://www.w3.org/2000/svg" viewBox="0 0 164.81 18.94"><defs><style>.cls-1{fill:#ccc;}</style></defs><title>logo_footer</title><path class="cls-1" d="M3.17.25,8,8.58h.2L13,.25h3.17L9.44,11.42v7.21H6.65V11.42L0,.25Z"/><path class="cls-1" d="M25.36,18.89c-4.79,0-8.3-3.58-8.3-9.45S20.57,0,25.36,0s8.28,3.57,8.28,9.45-3.53,9.45-8.28,9.45Zm0-2.56c3.15,0,5.5-2.41,5.51-6.88s-2.36-6.89-5.51-6.88S19.84,5,19.82,9.45,22.18,16.34,25.36,16.33Z"/><path class="cls-1" d="M44.66,18.89c-4.79,0-8.3-3.58-8.3-9.45S39.87,0,44.66,0s8.28,3.57,8.28,9.45-3.53,9.45-8.28,9.45Zm0-2.56c3.15,0,5.5-2.41,5.51-6.88s-2.36-6.89-5.51-6.88S39.14,5,39.12,9.45,41.48,16.34,44.66,16.33Z"/><path class="cls-1" d="M71.09,18.64H68.53L59.21,5.21h-.15V18.64H56.27V.25h2.59l9.32,13.46h.18V.25H71.1V18.64Z"/><path class="cls-1" d="M75,18.64V.25h6.14c5.42,0,8.65,3.44,8.66,9.17S86.59,18.64,81,18.64H75Zm5.81-2.44c4.16,0,6.22-2.44,6.22-6.78S85,2.69,81,2.69H77.82V16.2Z"/><path class="cls-1" d="M93.17.25H104.7V2.67H96V8.23h8.12v2.39H96v5.61h8.84v2.41H93.18V.25Z"/><path class="cls-1" d="M114.53,2.41c-2.25,0-3.67,1.16-3.68,2.72,0,1.74,1.89,2.42,3.35,2.77l1.78.48c2.35.57,5.29,1.85,5.31,5.18,0,3.11-2.49,5.38-6.83,5.38-4.11,0-6.7-2.06-6.88-5.41h2.79c.17,2,1.94,3,4.09,3,2.35,0,4.05-1.19,4.06-3,0-1.6-1.54-2.25-3.48-2.77l-2.18-.58c-3-.81-4.79-2.31-4.8-4.88,0-3.17,2.83-5.28,6.55-5.28s6.33,2.13,6.42,5.1h-2.72c-.18-1.71-1.68-2.69-3.78-2.69Z"/><path class="cls-1" d="M127.25,18.64h-2.79V.25h2.79Z"/><path class="cls-1" d="M138.81,2.56c-3.1,0-5.47,2.42-5.48,6.88s2.36,6.89,5.61,6.88a4.6,4.6,0,0,0,4.93-4.8h-4.52V9.21h7.24v2.08c0,4.66-3.2,7.59-7.67,7.59-5,0-8.35-3.62-8.35-9.45S134.05,0,138.8,0a7.43,7.43,0,0,1,7.67,6.07H143.6a4.71,4.71,0,0,0-4.77-3.5Z"/><path class="cls-1" d="M164.81,18.64h-2.56L152.93,5.21h-.15V18.64H150V.25h2.59l9.32,13.46h.18V.25h2.74V18.64Z"/></svg>